<svg xmlns="http://www.w3.org/2000/svg" version="1.0" viewBox="0 0 2508 2508"><path d="M1228.3 732c-18.7 1.1-39.3 3.5-57.8 6.6-35.2 6-78.2 18.4-108.8 31.5-18.9 8.1-46.1 21.9-62.4 31.7-43.1 26-84.5 61.3-119.1 101.6-12.4 14.5-29.8 37.8-40.5 54.2-11.4 17.4-25.2 41.6-33.7 58.9-19.9 40.9-33.4 80.8-42.9 127.5-5.9 28.8-9.4 58.6-10.6 91-1.1 26.1 1.6 64.2 6.6 93.5 2.6 15.7 7.3 37.6 10.5 49.5 10.4 38.6 25.5 79.1 39.6 105.7 8 15.2 21.3 37.6 30.1 50.8 19.2 28.8 44.3 59 69.3 83.5 17.4 17.1 33.9 31.2 53.9 46.1 80.4 59.9 176.2 94.6 272.5 98.7 22.4 1 38.9.6 61.5-1.4 47.1-4.2 94.9-15.9 140.5-34.4 15.5-6.3 44.6-20.6 60-29.5 17.7-10.1 36-22.3 52.9-35 48.9-36.8 87.8-79.1 122.8-133.5 20-31.1 38.9-69.7 51.6-105.5 13.4-37.8 22.6-77.9 27.1-118 2.6-23.4 3.9-51.9 3.2-70.5-1.2-31.8-3.6-54-8.7-82.5-9.7-54-29.9-111.7-55.6-159-19.5-35.8-41.7-68.4-64.9-95.5-12.5-14.5-35.5-37.5-50.4-50.4-13.3-11.4-34.8-27.7-49-37.2-21.7-14.3-54.2-31.7-76.9-41.1-44.3-18.4-96.3-31.3-143.6-35.8-20-1.9-58.5-2.6-77.2-1.5m82.7 21.9c76.5 9.3 144.6 34.4 206.6 76.2 27.2 18.3 48.4 36.1 72.5 60.5 9.1 9.3 21 22.3 26.5 28.9 22 26.6 40.3 53.8 57.1 85 29.6 54.8 49.7 117.7 57.9 180.5 1.3 10.2 2.9 27.7 3.5 39 .9 15.5.9 26.3.1 44-.7 12.9-2.1 30.7-3.2 39.5-4.1 32.8-11.7 66.4-22 97.6-7.5 22.5-14.2 39.1-24.4 60.4-24.7 51.2-57.3 97.2-97.1 137.1-23.9 23.9-46.5 42.4-74.5 60.9-19.6 13-36.4 22.7-55.7 32.1-38 18.6-78.7 32.2-118.8 39.9-20.9 4-36.4 6.1-56 7.5-44 3.1-90.8-1.3-137.6-13-8.6-2.1-21.5-5.8-28.5-8.1-44.1-14.2-91.7-37.9-130.7-64.9-15.9-11.1-38.3-29-52.7-42.2-29.6-27.1-58-60.4-80.3-94.4-17.9-27.2-33.3-56.9-45-86.4-16.7-42.2-27.5-82.8-32.7-122.3-3.3-25.6-4.1-38.2-4.1-63.7 0-31 1.6-50.9 6.7-81.3 6.3-37.8 17.7-77.9 31.9-112.3 7.7-18.6 23.4-49.7 34.1-67.4 36.2-60.4 84.9-113.2 139.3-151.1 6.7-4.6 18.3-12.1 25.8-16.7 15.6-9.4 41.6-22.8 57.3-29.5 25.4-10.8 55.5-20.7 80.5-26.3 23.8-5.4 49.6-9.5 72.5-11.4 5.8-.5 24.9-.7 42.5-.5 24.1.3 36.1.9 48.5 2.4"/><path d="M1168.5 1029.5c-16.4 3.1-25.1 6.7-29.4 12.1-1.7 2.2-2.1 4.1-2.1 11 0 4.6-.2 8.4-.4 8.4s-4.1.7-8.7 1.5c-19.3 3.6-35.4 9.2-44.2 15.2-2 1.4-4.6 4-5.7 5.8-1.7 2.8-2 5-2 17.1s.3 14.3 2 17.2c2 3.2 2 5.1 2 141.3 0 136.6 0 138.1-2 140.6-1.8 2.3-2 4.1-2 18 0 11.6.4 16.1 1.5 18.2 2.2 4.4 9.8 10.5 17.7 14.4 15.6 7.5 39.9 13.3 66 15.8 16.6 1.5 63.5.7 77.3-1.5 22.6-3.4 37.3-7.3 50.3-13.2 10.5-4.8 17.5-10.3 20.2-15.8 2-4.1 2.1-5.8 1.8-19-.3-13.1-.5-14.7-2.5-17.5-1.3-1.7-2.3-3.9-2.3-4.9 0-3.4 8.7-10 16.5-12.5 7.8-2.4 14.5-2.9 23.1-1.8 4.3.6 15.8 3.4 25.4 6.1 19.3 5.5 39.9 10 56.2 12.4 17.5 2.6 38.6 3.7 51.4 2.6 9.5-.7 12.3-1.4 15.9-3.4 2.9-1.7 5-4 6.4-6.9l2.1-4.4-.2-108.6c-.3-107.8-.3-108.6-2.4-111.4-1.1-1.5-4-3.8-6.4-5.1-4-2-5.9-2.2-19-2.2-33.7 0-76.2-7.3-104.5-17.9-6-2.3-17.6-7.3-25.7-11.2-16.6-8-24.5-10-32.8-8.3-2.8.6-5.2.9-5.5.6-.2-.2.7-2.1 2-4.1 2.4-3.4 2.5-4.4 2.5-17.2 0-12.5-.2-13.9-2.3-17-3.6-5.5-13.2-11.2-25.5-15.2-6.1-2-15.3-4.4-20.4-5.3s-9.9-1.8-10.5-2c-.9-.2-1.3-2.9-1.3-8.8 0-7.7-.2-8.7-2.6-11.6-1.5-1.7-4.5-4-6.7-5.1-2.2-1.2-8.3-3.2-13.6-4.6-8.5-2.3-12-2.6-30.6-2.9-15.6-.3-23.1 0-29 1.1m55.3 7.4c10.7 2.3 17.6 5.3 19.9 8.7 1.4 2.2 1.4 2.6-.1 4.9-.9 1.3-2.9 3.1-4.5 4-5.2 2.6-17.4 5.4-29.1 6.6-20.9 2.1-47-.8-59.4-6.4-6.2-2.8-8.3-5.6-6.6-8.7 2.3-4.2 16-9 31.6-11 10.8-1.4 37.5-.3 48.2 1.9m-85.6 43.3.3 12.2 4.5 2.3c10.5 5.3 26.5 7.7 52 7.6 14 0 22.2-.4 29-1.7 12.5-2.2 19.1-4.2 23.2-6.9l3.3-2.3.3-11.8.3-11.8 4.2.7c2.3.3 9.6 2 16.2 3.6 14.9 3.7 27.9 9.8 31.3 14.9 1.6 2.4 2.1 4.2 1.7 6-1.5 6-10.2 11.6-25.2 16.4-11 3.4-24.7 6.1-42.3 8.3-11 1.3-21.7 1.8-44.5 1.7-22.3 0-33.7-.5-44.5-1.8-17.4-2.1-32.5-5.3-43.9-9.5-13.5-4.9-20.2-9.7-21.6-15.1-1.5-6.2 7.8-13.3 24.2-18.5 9-2.9 24.2-6.3 28.5-6.4l2.7-.1zm-34.7 51.1c17.5 5.7 46.3 10 75.5 11.2 17.8.8 51.3-.8 66.9-3.1 5.8-.8 15.7-2.6 22-4 11.5-2.6 27.5-7.7 29.9-9.6.9-.8 1.2 27.3 1.2 140.1V1407l-3.7 4c-7.2 8.1-28.2 15.7-53.6 19.4-5.8.9-18.6 2.1-28.4 2.7-46.4 2.7-97.1-4.8-116.4-17.2-2.7-1.7-5.8-4.4-6.9-5.9-2-2.8-2-4.7-2-143.9V1125l3.8 1.8c2 1.1 7.3 3.1 11.7 4.5m220.5 6c2.4 1.2 2.5 1.5 2.8 13.6.2 7.9-.1 12.8-.8 13.6-.9 1.1-1.8 1.1-5.2-.1-2.3-.8-4.7-1.9-5.5-2.5-.9-.8-1.3-4.3-1.3-12.8 0-8 .4-12.1 1.2-12.9 1.4-1.4 4.4-.9 8.8 1.1m32 15.6c.5 1.1 1 6.7 1 12.4 0 12.5-.7 13.7-6.6 11-7.4-3.3-7.4-3.3-7.4-16.3 0-7.4.4-12 1.1-12.7.9-.9 2.4-.6 6 1.3 2.7 1.3 5.3 3.3 5.9 4.3m24.6 6.2c2.5.6 5.1 2.1 5.9 3.2 1.1 1.6 1.5 5 1.5 12.3 0 5.6-.3 10.9-.6 11.8s-1.4 1.6-2.4 1.6c-2.7 0-10.3-2.9-11.2-4.3-.9-1.5-1.1-24.1-.1-25 .9-.9 1.7-.9 6.9.4m33.3 8.4c3 .8 5.8 2 6.2 2.7.5.7.9 6.3.9 12.4 0 13.5-.4 14.1-8.1 12.5-2.9-.7-5.9-1.6-6.6-2.3-.9-.7-1.3-4.3-1.3-12.7q0-11.7 1.2-12.9c.7-.7 1.4-1.2 1.8-1.2.3 0 2.9.7 5.9 1.5m39.6 6.5c1.2 1 1.5 3.9 1.5 13.1 0 7.9-.4 12-1.2 12.5-.6.4-3.7.6-6.7.5-8.2-.2-9.1-1.7-9.1-14.3 0-5.5.5-10.9 1.1-12 1-1.8 1.8-2 7-1.5 3.3.3 6.6 1.1 7.4 1.7m34.9 1.6c.3.9.6 6.4.6 12.3 0 7-.4 11.1-1.2 11.9-.7.7-3.9 1.2-7.5 1.2-5.1 0-6.4-.3-7.3-1.9-.5-1.1-1-6.3-1-11.6s.5-10.5 1-11.6c.9-1.6 2.2-1.9 7.9-1.9 5.4 0 7 .4 7.5 1.6M1353 1337.4c2.5 1.1 2.5 1.2 2.5 14.1v13l-3.1-.1c-1.7-.1-4.4-.8-6-1.5l-2.9-1.4-.3-12c-.1-6.5 0-12.5.3-13.3.3-1 1.4-1.2 3.7-.7 1.8.4 4.4 1.2 5.8 1.9m-27.2-.2c.8.8 1.2 5 1.2 12.2 0 6.1-.4 11.7-.9 12.5s-3.1 2.2-5.7 3.2c-3.5 1.4-5.1 1.6-6.1.7-1.9-1.5-1.8-22.7.1-25.3 1.2-1.7 6.4-4.2 9.2-4.4.5-.1 1.5.4 2.2 1.1m54.7 7.3c2.7.7 5.2 2 5.6 2.7 1.3 2 1.1 24.6-.2 25.3-1.7 1.1-10.2-1.5-12.1-3.7-1.5-1.7-1.8-4-1.8-12.7 0-7 .4-11.1 1.2-11.9.7-.7 1.5-1.2 1.8-1.2.4 0 2.9.7 5.5 1.5m33.2 7.1c2.1.4 4.4 1.1 5.1 1.7 1.7 1.4 1.7 24-.1 25.5-1.8 1.6-10.8-.5-12.9-3-1.5-1.6-1.8-4-1.8-12.3 0-8.2.3-10.7 1.6-12 .9-.9 2.2-1.4 3-1.1.7.3 3 .8 5.1 1.2m40.1 6.2c.8 1 1.2 5.2 1.2 12.1 0 13.2-.7 14.2-8.8 13.4-3.1-.3-6.3-1-6.9-1.6-.9-.6-1.3-4.5-1.3-12.6 0-8 .4-12.1 1.3-13 1.7-1.7 12.8-.5 14.5 1.7m34-.6c.8.8 1.2 5 1.2 12.2 0 13.6-.6 14.6-9.1 14.6-4.7 0-6-.4-6.9-1.9-.5-1.1-1-6.7-1-12.5 0-12.7.6-13.6 8.9-13.6 3.1 0 6.2.5 6.9 1.2m-402.2 57.4c4.1 5.1 13.6 10.6 24.6 14.2 10.8 3.6 30.1 7.6 43.8 9.2 16.1 1.8 49.3 2.4 66.3 1.1 27.3-2 50.6-7 65.3-14 4.5-2.2 10.1-5.6 12.4-7.7 4.3-3.9 7.6-9.7 6.5-11.4-.4-.6-.1-1 .4-1 2 0 1.1 6.2-1.3 10.4-1.3 2.3-4.4 5.5-6.8 7.2-12.6 9.1-31.3 14.8-61.8 19.1-9.6 1.3-19.2 1.7-41 1.7-20.6-.1-32-.5-41.1-1.7-26.5-3.5-45.5-8.5-57.5-15.2-3.4-1.9-7.7-5.2-9.7-7.4-3.9-4.3-5.9-9.7-4.9-13.3.5-2 .7-1.7 1.3 1.5.3 2.1 1.9 5.4 3.5 7.3"/><path d="M1180.3 1038.1c-9.7.9-20 3.2-24.3 5.4-1.5.8-3.2 2.1-4 3-1.1 1.3-1 1.8.3 3.3.9 1 4 2.6 6.9 3.5 8.3 2.5 19.7 3.7 36.2 3.7 26 0 43.5-4.5 41.2-10.5-2.2-5.9-33.6-10.5-56.3-8.4m-56.3 35.5c-16.6 3.6-27.3 7.8-31.8 12.7-1.7 1.8-2.3 3.4-2 5.8.5 5 6.6 9.1 19.7 13.3 12.2 4 27 6.8 44.6 8.7 15.4 1.6 60.4 1.6 76 0 25.1-2.6 44.2-6.7 55.8-11.9 6-2.8 11.7-7.9 11.7-10.7 0-2.4-5.1-7.5-9.9-9.9-6.2-3.1-15.7-6.2-26.3-8.5l-8.8-1.9v7.6c.1 4.5.6 8.7 1.4 10.1 3.1 5.6-3.1 10.2-18.4 13.9-4.7 1.2-13.2 2.6-19 3.3-13.2 1.5-45.4.6-57-1.5-17-3.2-27-8-27-13.1 0-1.2.7-2.8 1.5-3.5 1.1-.9 1.5-3.3 1.5-8.6 0-4-.3-7.5-.7-7.7-.5-.2-5.5.6-11.3 1.9m75.5 90.6c-.3.7-.4 56.4-.3 123.7.2 96.9.6 122.5 1.6 122.9.9.3 1.2-24.9 1.2-123.7 0-117-.2-128.9-2.5-122.9m-72.5 18.7v19.1h10v-20.1l11.5 10.8c11 10.3 11.8 10.8 16.6 11.3 3.5.4 5.3.2 5.6-.6.2-.7.3-9 .1-18.6l-.3-17.3-5.2-.3-5.1-.3-.6 5.3c-.4 2.9-.7 7.5-.9 10.3l-.2 5-11.5-11.1c-9.9-9.6-12.1-11.3-15.7-11.9l-4.3-.7zm129.3 15.3c-1.2.6-2.9 2.5-3.7 4.3-1.9 3.9-2.1 11.4-.4 15 1.5 3.3 6.2 5.8 9.1 4.9 1.2-.3 3.2-1.6 4.5-2.7 2.9-2.7 3-8.9.2-11.7-2.1-2.1-7.4-2.7-8.5-1-.3.5-1 1-1.5 1s-.4-1.3.1-3c1.2-3.2 4.4-4.9 6.2-3.1 1.3 1.3 5.7 1.5 5.7.2 0-1.6-5.2-5.1-7.4-5-1.1 0-3.1.5-4.3 1.1m6.7 13.3c1 1.2 1 2.1.1 4.1s-1.7 2.5-3.9 2.2c-1.9-.2-2.8-.9-3-2.6-.7-4.4 4.1-7 6.8-3.7m-29.4-11.4c-1.4 1.1-2.6 2.6-2.6 3.4 0 .7.9 1.5 2 1.8 1.4.3 2.4-.1 3.1-1.5 1.4-2.6 5.3-2 5.7.9.3 1.7-.3 2.6-2.2 3.3-3 1.1-3.5 4-.7 4 1 0 2.4.7 3.2 1.6 2.8 3.4-3.2 7.2-6.4 4-.9-.9-2.5-1.6-3.6-1.6-1.5 0-1.9.5-1.4 1.7 1.3 3.6 3.6 5.3 7.4 5.3 2 0 4.5-.3 5.4-.6.8-.4 2.2-1.9 3-3.5 1.1-2 1.2-3.5.6-5.2-.6-1.4-1.5-2.7-2.2-2.9-1-.3-.9-1 .4-2.8.9-1.4 1.7-3 1.7-3.8 0-.7-1.1-2.4-2.5-3.7-3-3.1-7.3-3.2-10.9-.4m-121.6 16.4c0 3.6.3 6.5.8 6.5.4 0 7.6.7 16 1.5 8.5.8 21.5 1.8 28.9 2.1l13.4.7-.3-6.4-.3-6.4-17.5-1.2c-9.6-.6-21.6-1.6-26.7-2.2-5-.6-10.3-1.1-11.7-1.1-2.5 0-2.6.2-2.6 6.5m0 24.3v6.8l14.3 1.3c15.8 1.3 39 3 42.5 3.1 2.1 0 2.2-.4 2.2-6.4v-6.4l-8.7-.6c-20.8-1.5-46-3.7-48-4.1-2.2-.5-2.3-.3-2.3 6.3m148.7-5.1c-.4.3-.7 4.4-.7 9 0 7.5.2 8.4 1.7 8.1 1.1-.2 2-1.5 2.3-3.3.4-2.1 1.2-3.1 2.7-3.3 2.5-.4 5.3-3.7 5.3-6.3s-3.4-4.9-7.2-4.9c-1.9 0-3.8.3-4.1.7m7.1 5.1c.3 1.8-.1 2.2-2.2 2.2-1.9 0-2.6-.5-2.6-1.8 0-1 .3-2.2.7-2.6 1.4-1.3 3.8-.1 4.1 2.2m-33-4-4.8.3v16.9h5.5c4.2 0 5.5-.3 5.5-1.5 0-1-1.1-1.5-3.5-1.5-2.8 0-3.5-.4-3.5-2 0-1.3.7-2 2-2.1 4.1-.3 4.5-.4 4.5-1.9 0-1.1-.9-1.4-3.2-1.2-2.7.3-3.3 0-3.3-1.6 0-1.5.9-2.1 3.5-2.6 1.9-.4 3.5-1.1 3.5-1.6 0-1.3-1-1.5-6.2-1.2m9.2.4c0 .7.9 2.4 2 3.8s2 2.8 2 3.3c0 .4-1.1 2.5-2.5 4.7s-2.5 4.2-2.5 4.5.6.5 1.3.5c.6 0 2.4-1.4 3.9-3.2l2.6-3.3 1.3 2.8q1.2 2.7 3.6 2.7h2.3l-2.6-4.2-2.6-4.1 2.1-4.4c1.9-4 1.9-4.3.3-4.3-.9 0-2.5 1.2-3.3 2.7l-1.7 2.6-1.7-2.6c-1.8-2.8-4.5-3.6-4.5-1.5m-108 23.7c-7.5 2.4-14.1 8.3-18.1 16.1-2 3.8-2.4 6-2.4 14 0 8.9.2 9.9 3.4 15.8 5.7 10.6 15.8 17.1 26.2 17.2 3 0 7.6-.7 10.2-1.6 2.5-.8 6.6-3.3 9.1-5.5s5.7-6.5 7.3-9.7c2.4-4.9 2.8-6.9 2.8-14.2s-.4-9.3-2.8-14.1c-1.5-3.1-4.7-7.5-7.1-9.7-6.5-6-12-8.4-19.6-8.8-3.6-.2-7.6 0-9 .5m18.4 5.6c2 .9 5.3 3.5 7.5 5.6 7.9 8 10.9 19.8 7.6 30-1.3 3.7-3.3 6.8-6.9 10.4-5.5 5.5-10.3 7.5-17.7 7.5-6.2 0-13.7-3.8-18.6-9.4-2.3-2.6-4.9-6.8-5.7-9.3-1.9-5.6-2-14.4-.2-19.6 2.9-8 7.8-13 16.1-16.4 3.9-1.6 13.3-1 17.9 1.2"/><path d="M1135.8 1267.6c-2.1.9-3.8 2-3.8 2.4 0 .5 4.6 3.8 10.3 7.4l10.2 6.5.3-7.6c.2-4.2-.1-8-.6-8.5-.6-.6-3.6-1.2-6.8-1.4-4-.3-7.1.1-9.6 1.2m19.2 15.3v14l7-4.1c7.7-4.4 7.7-4.5 4.2-11.3-2.3-4.5-5.1-8-8.3-10.4l-2.9-2.2zm-29-7.8c-3.6 5-5.3 10.2-4.8 14.5l.3 3.2 9.7-6.2c5.4-3.3 9.9-6.5 10-6.9.2-.4-2.5-2.6-5.9-4.8l-6.3-3.9zm1.2 16.3c-2.9 1.8-5.5 3.6-5.8 3.9-1 1 1.5 7.9 4.2 11.9 1.5 2.1 4 4.8 5.6 5.9l2.8 2v-13.5c0-7.5-.3-13.6-.7-13.5-.5 0-3.2 1.5-6.1 3.3m30.6 6.4c-6 3.7-10.8 6.9-10.8 7.2 0 .7 11.5 8 12.7 8 1.6 0 7-8.1 8.3-12.5.6-2.2 1-5.3.8-6.7l-.3-2.7zM1136 1308c0 7.7.1 8.1 2.6 9 3.8 1.5 12.1 1.2 15.4-.5 1.7-.9 3-1.7 3-1.9 0-.4-10.9-8.1-16.7-11.8l-4.3-2.8zm122-28.7c-21.3 1.1-30.1 2.1-29.8 3.2.2.6 6.1.9 15.8.7 19.5-.4 30.2-1.4 30.7-2.8.2-.6-.2-1.3-.9-1.5-.7-.3-7.8-.1-15.8.4m6.9 32.6c-2.9 2.9-3.5 5.6-3 12.6.3 3.8 2.6 7.4 5.4 8.4 1.2.5 3.4.4 4.9-.1 1.7-.6 3.2-2.3 4.2-4.9 2-4.9 2-8.9.2-13.4-1.5-3.4-4.1-5.5-7.1-5.5-.9 0-3 1.3-4.6 2.9m6.9 2.3c1.2 1.2 1.7 10.4.6 13.2-.8 2.2-4.1 2-5.4-.3-1.6-3-1.2-10.7.6-12.5.8-.9 1.9-1.6 2.3-1.6s1.2.5 1.9 1.2m-26.2-1.1c-2.2 2.6-2.6 4-2.6 9.4 0 5.2.4 6.9 2.3 9.1 3 3.5 7.1 3.5 10.6 0 2.3-2.3 2.6-3.4 2.6-9.5 0-6-.3-7.3-2.4-9.5-3.4-3.6-7.2-3.4-10.5.5m7.2 2.1c3.2 4.1 1.9 14.8-1.8 14.8-2.5 0-4-2.9-4-7.7 0-3.7 2.2-8.3 3.9-8.3.5 0 1.3.6 1.9 1.2m-25.3 4.3c-2.6 4.7-4.5 9-4.3 9.7.2.6 2.6 1.2 5.3 1.2 4.3.1 5 .4 5 2.1 0 2.9 3.9 2.7 4.3-.3.2-1.2.8-2.2 1.3-2.2s.9-.9.9-2-.4-2-1-2-1-3.2-1-7.5v-7.5h-2.9c-2.7 0-3.4.8-7.6 8.5m5.9 2.2c-.1 3.3-.4 3.8-2.7 4.1l-2.6.3 2.2-4c1.2-2.3 2.4-4.1 2.7-4.1s.5 1.7.4 3.7m-108.6 6.9c-1.1 1.1-1 5.8.3 9.1.5 1.5 2.4 4.2 4.1 6l3.1 3.2-3.6-.6-3.7-.6v13l3.8.6c2 .4 12.4.9 23 1.3l19.2.7v-13.1l-11.7-.7c-8.6-.5-13-1.2-16.1-2.7-2.4-1.1-4.9-3.2-5.7-4.9-.8-1.5-1.5-4.6-1.5-6.9 0-3.1-.4-4-1.7-4-1 0-3.4-.3-5.3-.6s-3.8-.2-4.2.2m133.4 20.1c-1.9.7-4.2 5.8-4.2 9.3 0 1.9.9 4 2.5 5.5 3.8 3.9 8.6 3.2 11-1.6.8-1.5 1.5-4.1 1.5-5.7 0-4.1-3.5-8.2-6.8-8.1-1.5 0-3.3.3-4 .6m6.8 4.9c2 5.1-1.4 10.4-5.2 8.3-1.2-.7-1.8-2.2-1.8-4.7 0-2.1.5-4.3 1.2-5 2-2 4.8-1.4 5.8 1.4m-32 4.4c0 8.2.2 9.1 1.8 8.8 1.5-.3 1.7-1.5 1.7-8.8s-.2-8.5-1.7-8.8c-1.6-.3-1.8.6-1.8 8.8m8.6-7.7c-1.2.9-1.7 2.3-1.4 4.2.2 2.4 1 3.2 3.8 4.1 1.9.6 3.6 1.8 3.8 2.7.4 2.2-2.8 3-4.9 1.1-1-.9-2.3-1.3-2.8-.9-1.6.9.4 4.2 3 5 2.7.9 7.7-1.2 8.4-3.6 1.1-3.5-.4-5.8-4.6-6.9-2.4-.7-3.9-1.6-3.6-2.3.5-1.7 3.8-2.1 4.8-.6.6 1.1 1.1 1.1 2 .2s.9-1.6-.1-2.8c-1.5-1.8-6-2-8.4-.2m-135.4 15.4c-1.3 3.5-.6 12.8 1.2 16.6 2.5 5.2 7.6 8.8 13.1 9.5l4.5.5v4.3c0 4 .2 4.4 2.4 4.4 1.3 0 3.7.3 5.4.6 3 .6 3.1.5 3.4-3.7.2-2.4.8-4.3 1.3-4.3.6.1 8.3.5 17.3.9l16.2.7v-13.9l-6.7-.6c-3.8-.4-9.9-.7-13.8-.7-3.8 0-8.7-.3-10.7-.6l-3.8-.7V1368h-11v10.7l-3.1-.5c-3.9-.6-6.2-4-5.7-8.9.2-3.2 0-3.8-2.2-4.4-4.5-1.2-7-1-7.8.8"/></svg>
