<svg width="128" height="128" viewBox="0 0 128 128" xmlns="http://www.w3.org/2000/svg">
  <rect x="8" y="28" width="112" height="72" rx="8" fill="#222"/>
  
  <!-- sprocket holes top -->
  <g fill="#fff">
    <rect x="16" y="32" width="8" height="8"/>
    <rect x="32" y="32" width="8" height="8"/>
    <rect x="48" y="32" width="8" height="8"/>
    <rect x="64" y="32" width="8" height="8"/>
    <rect x="80" y="32" width="8" height="8"/>
    <rect x="96" y="32" width="8" height="8"/>
  </g>

  <!-- sprocket holes bottom -->
  <g fill="#fff">
    <rect x="16" y="88" width="8" height="8"/>
    <rect x="32" y="88" width="8" height="8"/>
    <rect x="48" y="88" width="8" height="8"/>
    <rect x="64" y="88" width="8" height="8"/>
    <rect x="80" y="88" width="8" height="8"/>
    <rect x="96" y="88" width="8" height="8"/>
  </g>

  <!-- frames -->
  <rect x="20" y="44" width="24" height="40" fill="#444"/>
  <rect x="52" y="44" width="24" height="40" fill="#666"/>
  <rect x="84" y="44" width="24" height="40" fill="#444"/>
</svg>